{"title":"Leaves Of Grass.2009.DVDRiP.XViD.AC3(5.1)SWESUB-Zen_Bud.avi","uid":5858250,"size":1472301952,"categoryP":"video","categoryS":"movies","magnet":"?xt=urn:btih:f1a5cbdeb9acebf24cba7e6ccb8e930f8965edfd&amp;dn=Leaves+Of+Grass.2009.DVDRiP.XViD.AC3%285.1%29SWESUB-Zen_Bud.avi&amp;tr=udp%3A%2F%2Ftracker.openbittorrent.com%3A80&amp;tr=udp%3A%2F%2Fopen.demonii.com%3A1337&amp;tr=udp%3A%2F%2Ftracker.coppersurfer.tk%3A6969&amp;tr=udp%3A%2F%2Fexodus.desync.com%3A6969","seeders":1,"leechers":0,"uploader":"Zen_Bud","files":-1,"time":1285875618,"description":"\n***** Leaves Of Grass.2009.avi ****\n\nFormat                           : AVI\nFile size                        : 1.37 GiB\nDuration                         : 1h 44mn\nOverall bit rate                 : 1 872 Kbps\n\nVideo\n\nFormat                           : MPEG-4 Visual\nCodec ID/Hint                    : XviD\nDuration                         : 1h 44mn\nBit rate                         : 1 413 Kbps\nWidth                            : 720 pixels\nHeight                           : 460 pixels\nDisplay aspect ratio             : 1.855\nStream size                      : 1.04 GiB (75%)\nWriting library                  : XviD 1.1.2 (UTC 2006-11-01)\n\nAudio\n\nFormat                           : AC-3\nDuration                         : 1h 44mn\nBit rate                         : 448 Kbps\nChannel(s)                       : 6 channels\nChannel positions                : Front: L C R, Side: L R, LFE\nSampling rate                    : 48.0 KHz\nBit depth                        : 16 bits\nStream size                      : 336 MiB (24%)\nLanguage                         : English\n\n\n\n","torrent":{"xt":"urn:btih:f1a5cbdeb9acebf24cba7e6ccb8e930f8965edfd","amp;dn":"Leaves+Of+Grass.2009.DVDRiP.XViD.AC3%285.1%29SWESUB-Zen_Bud.avi","amp;tr":["udp%3A%2F%2Ftracker.openbittorrent.com%3A80","udp%3A%2F%2Fopen.demonii.com%3A1337","udp%3A%2F%2Ftracker.coppersurfer.tk%3A6969","udp%3A%2F%2Fexodus.desync.com%3A6969"],"infoHash":"f1a5cbdeb9acebf24cba7e6ccb8e930f8965edfd","infoHashBuffer":{"type":"Buffer","data":[241,165,203,222,185,172,235,242,76,186,126,108,203,142,147,15,137,101,237,253]},"announce":[],"urlList":[]}}